<?xml version="1.0" encoding="iso-8859-1"?>
<!-- Generator: Adobe Illustrator 19.0.0, SVG Export Plug-In . SVG Version: 6.00 Build 0)  -->
<svg version="1.1" id="Layer_1" xmlns="http://www.w3.org/2000/svg" xmlns:xlink="http://www.w3.org/1999/xlink" x="0px" y="0px"
	 viewBox="0 0 512 512" style="enable-background:new 0 0 512 512;" xml:space="preserve">
<g>
	<g>
		<path d="M458.3,343.834l-31.633-31.633V170.803c0-0.043,0.017-0.094,0.017-0.137c0-0.085-0.026-0.162-0.026-0.239
			c-0.094-62.208-33.724-116.565-83.661-146.321c-0.486-0.478-1.041-0.905-1.647-1.254c-0.239-0.137-0.538-0.111-0.794-0.23
			C315.597,8.311,286.771,0,256,0c-30.78,0-59.605,8.311-84.574,22.63c-0.247,0.111-0.521,0.085-0.76,0.222
			c-0.606,0.35-1.152,0.768-1.647,1.246c-50.005,29.79-83.686,84.25-83.686,146.569v141.534L53.7,343.834
			c-1.604,1.596-2.5,3.772-2.5,6.033c0,4.284,0.401,105.591,35.567,158.336c1.579,2.372,4.241,3.797,7.1,3.797
			c2.85,0,5.521-1.425,7.1-3.797c35.166-52.745,35.567-154.052,35.567-158.336c0-2.261-0.905-4.437-2.5-6.033L102.4,312.201v-67.567
			c14.857,30.729,38.519,56.422,67.874,73.549c0.137,0.085,0.247,0.205,0.393,0.29c0.247,0.145,0.529,0.213,0.794,0.333
			c22.622,12.962,48.444,20.949,76.006,22.315v18.048c-24.175,4.087-42.667,25.114-42.667,50.432
			c0,25.318,18.492,46.345,42.667,50.432v20.207c-5.077,2.961-8.533,8.405-8.533,14.694c0,9.412,7.654,17.067,17.067,17.067
			c9.412,0,17.067-7.654,17.067-17.067c0-6.289-3.456-11.733-8.533-14.694v-20.207c24.175-4.087,42.667-25.114,42.667-50.432
			c0-25.318-18.492-46.345-42.667-50.432V332.8c0-4.71-3.823-8.533-8.533-8.533c-22.084,0-43.051-4.779-62.046-13.21
			c16.7-8.943,43.255-24.9,62.046-44.442c18.782,19.533,45.329,35.49,62.037,44.442c-9.429,4.19-19.319,7.578-29.696,9.796
			c-4.599,0.99-7.543,5.53-6.554,10.138c0.998,4.599,5.495,7.578,10.138,6.554c17.195-3.686,33.246-10.086,47.992-18.483
			c0.486-0.171,0.973-0.324,1.425-0.589c0.444-0.256,0.828-0.58,1.203-0.905c29.082-17.263,52.412-42.837,67.055-73.114v67.746
			l-31.633,31.633c-1.604,1.596-2.5,3.772-2.5,6.033c0,4.284,0.41,105.591,35.567,158.336c1.579,2.372,4.25,3.797,7.1,3.797
			c2.85,0,5.521-1.425,7.1-3.797C460.39,455.458,460.8,354.15,460.8,349.867C460.8,347.605,459.904,345.429,458.3,343.834z
			 M119.415,353.348c-0.358,16.495-3.217,87.706-25.549,132.966c-22.332-45.261-25.19-116.471-25.549-132.966l17.015-17.015v81.801
			c0,4.71,3.823,8.533,8.533,8.533s8.533-3.823,8.533-8.533v-81.801L119.415,353.348z M290.133,409.6
			c0,18.825-15.309,34.133-34.133,34.133s-34.133-15.309-34.133-34.133c0-18.825,15.309-34.133,34.133-34.133
			S290.133,390.775,290.133,409.6z M322.27,119.834c-2.193-0.179-4.395-0.358-6.528-0.358c-14.686,0-26.624,4.352-36.181,10.411
			c0.478-11.315-1.715-23.834-9.071-36.565c-1.067-1.843-2.313-3.644-3.567-5.453c18.065-19.473,46.711-36.002,62.447-44.245
			C330.103,61.372,330.112,94.455,322.27,119.834z M271.095,161.98c0.256-0.521,0.503-1.015,0.759-1.562
			c7.834-10.573,21.794-23.552,43.179-23.842c-11.025,18.517-29.201,24.098-42.76,25.515
			C271.881,162.048,271.479,162.014,271.095,161.98z M315.025,204.774c-21.333-0.29-35.174-12.988-43.008-23.518
			c-0.307-0.674-0.614-1.263-0.922-1.903c0.384-0.026,0.777-0.068,1.178-0.102C285.833,180.659,304.009,186.257,315.025,204.774z
			 M256,17.067c22.093,0,43.051,4.779,62.054,13.21c-16.7,8.943-43.247,24.909-62.037,44.442
			c-18.79-19.541-45.346-35.507-62.054-44.45C212.958,21.845,233.916,17.067,256,17.067z M165.444,46.882
			c-0.597,18.953-0.026,49.835,7.484,75.802c-26.377,6.519-53.538,21.581-69.623,31.582
			C108.006,110.217,131.465,71.808,165.444,46.882z M165.444,294.451c-33.98-24.926-57.438-63.343-62.14-107.383
			c16.085,9.993,43.238,25.054,69.606,31.573C165.402,244.617,164.838,275.499,165.444,294.451z M178.842,202.624
			c-25.89-5.905-54.537-22.451-69.53-31.957c15.002-9.506,43.648-26.061,69.555-31.966c0.939,1.988,1.877,3.977,2.944,5.82
			c7.381,12.791,17.323,20.924,27.469,26.138c-10.146,5.214-20.104,13.346-27.486,26.146
			C180.727,198.647,179.78,200.636,178.842,202.624z M239.744,162.082c-13.551-1.417-31.718-6.997-42.743-25.515
			c21.333,0.299,35.183,13.005,43.008,23.535c0.307,0.666,0.614,1.246,0.913,1.869C240.538,162.005,240.145,162.048,239.744,162.082
			z M240.922,179.345c-0.256,0.538-0.521,1.033-0.768,1.587c-7.842,10.573-21.794,23.535-43.179,23.834
			c11.025-18.526,29.21-24.115,42.769-25.523C240.145,179.277,240.538,179.319,240.922,179.345z M182.647,297.711
			c-0.734-17.732-0.759-50.807,7.091-76.211c2.202,0.188,4.395,0.367,6.528,0.367c14.686,0,26.633-4.352,36.19-10.419
			c-0.478,11.307,1.724,23.834,9.071,36.557c1.067,1.843,2.313,3.652,3.575,5.461C227.029,272.947,198.383,289.476,182.647,297.711z
			 M241.545,93.338c-7.347,12.723-9.549,25.242-9.071,36.557c-9.566-6.067-21.513-10.428-36.207-10.428
			c-2.125,0-4.309,0.179-6.502,0.358c-7.834-25.378-7.834-58.462-7.108-76.211c15.735,8.243,44.399,24.772,62.464,44.254
			C243.866,89.677,242.611,91.486,241.545,93.338z M256,238.865c-10.436-18.62-6.366-36.966-1.169-49.016
			c0.427-0.597,0.777-1.161,1.169-1.749c0.393,0.58,0.742,1.135,1.169,1.732C262.366,201.882,266.445,220.237,256,238.865z
			 M257.169,151.509c-0.427,0.597-0.768,1.143-1.161,1.724c-0.384-0.572-0.734-1.118-1.152-1.707
			c-5.205-12.049-9.293-30.421,1.161-49.058C266.47,121.105,262.374,139.469,257.169,151.509z M329.353,297.719
			c-15.735-8.235-44.39-24.747-62.456-44.245c1.254-1.809,2.509-3.627,3.576-5.478c7.347-12.715,9.54-25.242,9.071-36.548
			c9.557,6.067,21.504,10.428,36.198,10.428c2.133,0,4.326-0.179,6.511-0.367C330.095,246.895,330.086,279.97,329.353,297.719z
			 M330.206,196.804c-7.381-12.783-17.323-20.915-27.469-26.129c10.155-5.214,20.105-13.346,27.486-26.138
			c1.067-1.843,2.014-3.831,2.944-5.82c25.899,5.905,54.545,22.451,69.538,31.949c-14.993,9.506-43.648,26.061-69.547,31.966
			C332.22,200.644,331.273,198.647,330.206,196.804z M346.564,294.562c0.606-18.944,0.051-49.894-7.475-75.913
			c26.308-6.502,53.41-21.513,69.513-31.514C403.866,230.519,380.757,269.38,346.564,294.562z M339.106,122.701
			c7.501-25.967,8.073-56.849,7.467-75.802c33.971,24.917,57.421,63.326,62.123,107.358
			C392.61,144.265,365.466,129.22,339.106,122.701z M418.133,486.315c-22.332-45.261-25.182-116.471-25.549-132.966l17.015-17.015
			v81.801c0,4.71,3.814,8.533,8.533,8.533c4.719,0,8.533-3.823,8.533-8.533v-81.801l17.015,17.015
			C443.315,369.843,440.465,441.054,418.133,486.315z"/>
	</g>
</g>
<g>
</g>
<g>
</g>
<g>
</g>
<g>
</g>
<g>
</g>
<g>
</g>
<g>
</g>
<g>
</g>
<g>
</g>
<g>
</g>
<g>
</g>
<g>
</g>
<g>
</g>
<g>
</g>
<g>
</g>
</svg>
